<svg width="123" height="38" viewBox="0 0 123 38" fill="none" xmlns="http://www.w3.org/2000/svg">
<path d="M12.4246 2.82592C13.0856 2.47009 13.3997 1.64837 13.0491 0.896346C12.651 0.0416103 11.5864 -0.246358 10.7738 0.226865C8.33786 1.64653 6.13379 3.62563 4.17625 6.14765C4.17077 6.15316 4.16712 6.16049 4.16164 6.166C3.21391 7.38941 2.43418 8.74121 1.84801 10.1756C1.84436 10.1829 1.84253 10.1902 1.83888 10.1976C0.63185 13.158 0.0164634 16.0597 2.87586e-05 18.8898C-0.00544945 19.8326 0.772456 20.6176 1.70923 20.5406C2.53461 20.4727 3.08791 19.7904 3.066 19.0384C2.96557 15.5241 3.86582 12.4389 5.4965 9.6473C7.09796 6.83914 9.33672 4.4822 12.4246 2.82592Z" fill="#0A2543"/>
<path d="M40.9805 19.6051C40.0072 13.0166 36.3843 7.80937 29.9712 5.01038C21.7301 1.41352 11.2722 5.45059 8.09851 13.4532C5.56758 19.8344 7.57443 27.239 13.5384 30.282C17.8625 32.4885 22.939 31.344 25.7895 27.8572C26.6824 26.874 27.3252 25.6341 27.6082 24.2511C28.0593 22.327 27.7379 20.3901 26.75 18.7797C26.5601 18.4477 26.3428 18.1341 26.109 17.8369C26.0542 17.9213 25.9995 18.0057 25.9374 18.09C24.6737 19.8014 22.718 20.4965 21.5694 19.6418C20.472 18.8237 20.5103 16.8868 21.6187 15.2232C21.4471 15.1994 21.2718 15.1792 21.0965 15.1682C20.828 15.1297 20.556 15.1058 20.2784 15.0966V15.1058C19.3599 15.1425 18.4761 15.2819 17.742 15.7606C18.7281 14.5042 20.2145 13.5816 21.9164 13.3248C25.185 12.8332 28.45 14.5097 30.3126 17.6352C32.5587 21.4081 32.1223 26.4081 29.2444 29.8949C26.666 33.0204 23.0759 34.6712 19.4165 34.7134C19.0348 34.7171 18.6751 34.9133 18.4596 35.2306C17.6635 36.4045 18.4943 37.7068 19.6228 37.6921C25.7456 37.6224 31.3864 33.8715 33.742 27.9305C36.2729 21.5493 33.7383 14.4106 27.7744 11.3677C22.634 8.74481 16.482 10.7367 14.2213 15.8908C14.1044 16.1568 13.7922 17.2316 13.7082 17.5581C13.2042 19.5244 13.679 21.8336 14.0004 22.5526C15.0084 24.8087 17.2873 26.6191 20.2693 26.7401C20.282 26.7401 20.293 26.742 20.3058 26.742V26.7383C21.5201 26.6924 22.6578 26.3953 23.611 25.834C22.6249 27.1198 21.1239 28.0662 19.3946 28.3267C16.1259 28.8183 12.8609 27.1418 10.9983 24.0163C8.75224 20.2434 9.71641 14.9792 12.5943 11.4906C17.0919 6.0412 25.9775 5.06724 31.6457 9.2969C35.3142 12.0354 37.4927 15.7423 38.0935 19.8032C38.2487 20.8505 39.4886 21.5017 40.5715 20.6469C40.8472 20.4286 41.0317 19.9536 40.9805 19.6051Z" fill="#0A2543"/>
<path d="M57.4812 27.6461C58.6571 27.6461 59.7199 27.1893 60.664 26.2741C61.6428 25.3331 62.134 24.2326 62.134 22.9725V22.9468C60.8028 24.1299 59.2506 24.7205 57.4812 24.7205C55.54 24.7205 53.882 24.0309 52.5069 22.6497C51.1319 21.2686 50.4453 19.6031 50.4453 17.6533C50.4453 15.7036 51.1319 14.0381 52.5069 12.657C53.882 11.2758 55.54 10.5862 57.4812 10.5862C59.415 10.5862 61.0675 11.2722 62.4426 12.6442C63.8176 14.0161 64.5079 15.6779 64.517 17.6277V22.9744C64.517 24.8819 63.7774 26.5474 62.3002 27.9707C60.874 29.3519 59.267 30.0415 57.4812 30.0415C54.7238 30.0415 52.6622 28.9703 51.2944 26.8317C51.0881 26.5125 51.0461 26.1714 51.1648 25.8082C51.2853 25.445 51.5263 25.1992 51.8861 25.0708L51.9244 25.058C52.4996 24.8599 52.9598 25.014 53.3031 25.5239C54.2344 26.9381 55.6259 27.6461 57.4812 27.6461ZM62.134 17.5763C62.1175 16.2997 61.6519 15.2157 60.7425 14.3279C59.8404 13.431 58.7539 12.9816 57.4812 12.9816C56.1919 12.9816 55.0927 13.4384 54.1814 14.3536C53.2794 15.2689 52.8283 16.3694 52.8283 17.6552C52.8283 18.9501 53.2794 20.0543 54.1814 20.9696C55.0927 21.8757 56.1919 22.3287 57.4812 22.3287C58.7704 22.3287 59.866 21.8757 60.7681 20.9696C61.6793 20.0543 62.134 18.9501 62.134 17.6552V17.5763Z" fill="#0A2543"/>
<path d="M69.4804 18.5725C69.4804 19.53 69.8146 20.3499 70.4848 21.0322C71.1641 21.7145 71.984 22.0557 72.9463 22.0557C73.8995 22.0557 74.7121 21.7145 75.3823 21.0322C76.0616 20.359 76.4012 19.5392 76.4012 18.5725V11.7768C76.4012 11.4485 76.5181 11.1679 76.75 10.9349C76.9819 10.702 77.2613 10.5846 77.5882 10.5846H77.6138C77.9406 10.5846 78.2145 10.702 78.4391 10.9349C78.671 11.1679 78.7879 11.4485 78.7879 11.7768V24.165C78.7879 25.7608 78.1871 27.1456 76.9838 28.3195C75.8151 29.4677 74.4711 30.0418 72.95 30.0418C71.7302 30.0418 70.6217 29.7391 69.6247 29.1357C68.6624 28.5579 67.9319 27.7765 67.4334 26.7934C67.2709 26.4742 67.2563 26.1496 67.3951 25.8231C67.5247 25.4875 67.7566 25.2618 68.0908 25.15L68.1419 25.1243C68.4158 25.0289 68.6879 25.0344 68.9545 25.1371C69.2211 25.249 69.422 25.4343 69.5608 25.6929C69.8694 26.2798 70.3296 26.7494 70.9395 27.1034C71.5585 27.4665 72.2287 27.6463 72.95 27.6463C73.8685 27.6463 74.6719 27.3051 75.3604 26.6228C76.0561 25.9332 76.4049 25.1133 76.4049 24.1632V23.2956C75.3823 24.055 74.2319 24.4346 72.9518 24.4346C71.3357 24.4346 69.957 23.8605 68.8158 22.7123C67.6726 21.5733 67.1011 20.1921 67.1011 18.5707V11.775C67.1011 11.4467 67.2179 11.166 67.4498 10.9331C67.6818 10.7002 67.9557 10.5828 68.2752 10.5828H68.3136C68.6313 10.5828 68.9071 10.7002 69.139 10.9331C69.3709 11.166 69.4877 11.4467 69.4877 11.775V18.5725H69.4804Z" fill="#0A2543"/>
<path d="M88.0114 27.6463C89.1874 27.6463 90.2502 27.1896 91.1943 26.2743C92.173 25.3334 92.6643 24.2329 92.6643 22.9728V22.9471C91.333 24.1301 89.7809 24.7208 88.0114 24.7208C86.0703 24.7208 84.4123 24.0311 83.0372 22.6499C81.6622 21.2688 80.9756 19.6033 80.9756 17.6536C80.9756 15.7038 81.6622 14.0384 83.0372 12.6572C84.4123 11.2761 86.0703 10.5864 88.0114 10.5864C89.9452 10.5864 91.5978 11.2724 92.9729 12.6444C94.3479 14.0164 95.0381 15.6782 95.0473 17.6279V22.9746C95.0473 24.8822 94.3077 26.5476 92.8304 27.971C91.4043 29.3521 89.7973 30.0418 88.0114 30.0418C85.2541 30.0418 83.1924 28.9706 81.8247 26.8319C81.6184 26.5128 81.5764 26.1716 81.6951 25.8084C81.8156 25.4453 82.0566 25.1995 82.4164 25.0711L82.4547 25.0582C83.0299 24.8602 83.4901 25.0142 83.8334 25.5241C84.7647 26.9383 86.1561 27.6463 88.0114 27.6463ZM92.6643 17.5765C92.6478 16.2999 92.1822 15.2159 91.2728 14.3282C90.3707 13.4313 89.2842 12.9819 88.0114 12.9819C86.7222 12.9819 85.6229 13.4386 84.7117 14.3539C83.8096 15.2691 83.3586 16.3697 83.3586 17.6554C83.3586 18.9504 83.8096 20.0546 84.7117 20.9698C85.6229 21.8759 86.7222 22.329 88.0114 22.329C89.3006 22.329 90.3963 21.8759 91.2984 20.9698C92.2096 20.0546 92.6643 18.9504 92.6643 17.6554V17.5765Z" fill="#0A2543"/>
<path d="M105.563 13.1102C105.658 13.0075 105.633 12.9507 105.487 12.9415H98.8635C98.5366 12.9415 98.2627 12.8241 98.0381 12.5912C97.8062 12.3582 97.6893 12.0831 97.6893 11.7621V11.7236C97.6893 11.4044 97.8062 11.1275 98.0381 10.8945C98.2609 10.6616 98.5366 10.5442 98.8635 10.5442H106.608C107.501 10.5277 108.123 10.9275 108.476 11.7474C108.828 12.5838 108.686 13.3175 108.05 13.9485C105.138 17.0207 102.578 19.717 100.37 22.0391C100.37 22.0483 100.348 22.074 100.306 22.1161C100.204 22.2189 100.224 22.2757 100.37 22.2849H100.459L107.561 22.2977C107.888 22.2977 108.162 22.4096 108.386 22.6334C108.618 22.8663 108.735 23.147 108.735 23.4753V23.501C108.735 23.8293 108.618 24.1099 108.386 24.3429C108.164 24.5666 107.888 24.6785 107.561 24.6785H99.2488C98.3558 24.7042 97.7313 24.3025 97.3807 23.4753C97.0283 22.6462 97.1707 21.9125 97.8062 21.2742C98.648 20.3938 99.9281 19.0475 101.646 17.2353C103.339 15.4488 104.619 14.0989 105.487 13.1836C105.487 13.1799 105.512 13.1524 105.563 13.1102Z" fill="#0A2543"/>
<path d="M113.193 18.5725C113.193 19.53 113.527 20.3499 114.197 21.0322C114.876 21.7145 115.696 22.0557 116.659 22.0557C117.612 22.0557 118.425 21.7145 119.095 21.0322C119.774 20.359 120.114 19.5392 120.114 18.5725V11.7768C120.114 11.4485 120.231 11.1679 120.462 10.9349C120.694 10.702 120.974 10.5846 121.301 10.5846H121.326C121.653 10.5846 121.927 10.702 122.152 10.9349C122.383 11.1679 122.5 11.4485 122.5 11.7768V24.165C122.5 25.7608 121.9 27.1456 120.696 28.3195C119.527 29.4677 118.183 30.0418 116.662 30.0418C115.443 30.0418 114.334 29.7391 113.337 29.1357C112.375 28.5579 111.644 27.7765 111.146 26.7934C110.983 26.4742 110.969 26.1496 111.107 25.8231C111.237 25.4875 111.469 25.2618 111.803 25.15L111.854 25.1243C112.128 25.0289 112.4 25.0344 112.667 25.1371C112.934 25.249 113.134 25.4343 113.273 25.6929C113.582 26.2798 114.042 26.7494 114.652 27.1034C115.271 27.4665 115.941 27.6463 116.662 27.6463C117.581 27.6463 118.384 27.3051 119.073 26.6228C119.769 25.9332 120.117 25.1133 120.117 24.1632V23.2956C119.095 24.055 117.944 24.4346 116.664 24.4346C115.048 24.4346 113.669 23.8605 112.528 22.7123C111.385 21.5733 110.813 20.1921 110.813 18.5707V11.775C110.813 11.4467 110.93 11.166 111.162 10.9331C111.394 10.7002 111.668 10.5828 111.988 10.5828H112.026C112.344 10.5828 112.619 10.7002 112.851 10.9331C113.083 11.166 113.2 11.4467 113.2 11.775V18.5725H113.193Z" fill="#0A2543"/>
</svg>
