<svg width="50" height="50" viewBox="0 0 50 50" fill="none" xmlns="http://www.w3.org/2000/svg">
<g clip-path="url(#clip0)">
<path d="M0.158253 4.58651L3.49285 10.4217C3.60533 10.6189 3.7936 10.7616 4.01376 10.8168L7.12477 11.5945L17.7949 22.2646L18.9739 21.086L8.13674 10.2492C8.03009 10.1422 7.89635 10.0664 7.74992 10.0298L4.76065 9.27977L1.92157 4.30874L4.35565 1.87466L9.32875 4.71647L10.0791 7.70575C10.1154 7.85252 10.1915 7.9866 10.2982 8.09325L21.1353 18.9304L22.3139 17.7514L11.6438 7.08128L10.8661 3.97198C10.8109 3.75148 10.6682 3.56288 10.471 3.45005L4.63548 0.115795C4.31004 -0.0693848 3.90059 -0.0145168 3.63517 0.249878L0.300909 3.58448C0.032742 3.84819 -0.0255551 4.25833 0.158253 4.58651Z" fill="#AFCBD3"/>
<path d="M34.8161 16.4291L16.4768 34.7687L15.2979 33.5898L33.6375 15.2505L34.8161 16.4291Z" fill="#AFCBD3"/>
<path d="M13.2669 35.4175C13.116 35.1665 12.8451 35.0132 12.5522 35.0132H7.55065C7.25814 35.0132 6.98688 35.1665 6.83634 35.4175L4.33539 39.5854C4.17662 39.8495 4.17662 40.1797 4.33539 40.4441L6.83634 44.612C6.98688 44.8627 7.25814 45.0163 7.55065 45.0163H12.5522C12.8451 45.0163 13.116 44.8627 13.2669 44.612L15.7675 40.4441C15.9262 40.1797 15.9262 39.8495 15.7675 39.5854L13.2669 35.4175ZM12.0807 43.349H8.02252L6.02189 40.0148L8.02252 36.6801H12.0807L14.0813 40.0148L12.0807 43.349Z" fill="#AFCBD3"/>
<path d="M40.0615 20.0083C45.5672 20.0268 50.0457 15.5784 50.0643 10.0727C50.067 9.2346 49.9641 8.39992 49.758 7.58753C49.6469 7.1407 49.1946 6.86876 48.7478 6.97987C48.601 7.01656 48.4673 7.09235 48.3603 7.199L43.1711 12.3847L39.054 11.0127L37.6809 6.89654L42.87 1.70637C43.1955 1.3806 43.1951 0.852835 42.8694 0.527399C42.762 0.420064 42.6269 0.343934 42.4791 0.307584C37.1398 -1.04457 31.7157 2.1875 30.3636 7.52649C30.1582 8.33648 30.0556 9.1691 30.0584 10.0048C30.0604 10.6612 30.128 11.3155 30.261 11.9581L12.0048 30.2141C11.3621 30.0813 10.7078 30.0138 10.0518 30.0114C4.52694 30.0114 0.0483398 34.49 0.0483398 40.0148C0.0483398 45.5394 4.52694 50.018 10.0518 50.018C15.5763 50.018 20.0549 45.5394 20.0549 40.0148C20.0529 39.3585 19.985 38.7042 19.8522 38.0615L24.2228 33.691L26.1343 35.6024C26.4601 35.9279 26.9875 35.9279 27.3133 35.6024L27.7299 35.1854C28.0955 34.8223 28.6863 34.8223 29.0519 35.1854C29.4171 35.5496 29.4178 36.1408 29.0536 36.506C29.0533 36.5064 29.0526 36.5071 29.0519 36.5078L28.6352 36.9244C28.3098 37.2498 28.3098 37.7776 28.6352 38.103L38.5794 48.0472C41.1949 50.6867 45.4547 50.7059 48.0942 48.0904C50.7333 45.4749 50.7525 41.2147 48.137 38.5756C48.123 38.5612 48.1086 38.5468 48.0942 38.5324L38.15 28.5886C37.8246 28.2632 37.2968 28.2632 36.9714 28.5886L36.5547 29.0052C36.1888 29.3687 35.5983 29.3687 35.2324 29.0052C34.8676 28.6411 34.8665 28.0499 35.2307 27.685C35.2314 27.6843 35.2321 27.684 35.2324 27.6833L35.6494 27.2663C35.9749 26.9408 35.9749 26.4131 35.6494 26.0876L33.738 24.1762L38.1085 19.8056C38.7512 19.9383 39.4055 20.0062 40.0615 20.0083ZM43.3368 48.351C42.7312 48.35 42.1307 48.2406 41.5638 48.0276L48.0743 41.5169C49.0568 44.1303 47.7348 47.0451 45.1213 48.0276C44.5511 48.242 43.9465 48.3517 43.3368 48.351ZM33.893 26.6854C32.9698 27.7865 33.1145 29.4277 34.2157 30.3505C35.1834 31.1616 36.5938 31.1609 37.5605 30.3481L46.9155 39.7114C47.017 39.8132 47.112 39.9205 47.2039 40.0296L40.0766 47.1569C39.9672 47.0654 39.8599 46.9704 39.758 46.8685L30.3958 37.5057C31.319 36.4045 31.1743 34.7633 30.0731 33.8405C29.1054 33.0291 27.6946 33.0302 26.7279 33.8425L25.3943 32.5089L32.559 25.3548L33.893 26.6854ZM37.2591 18.3012L18.3485 37.208C18.1411 37.4151 18.0577 37.7159 18.1284 38.0002C19.272 42.4914 16.5581 47.0595 12.0665 48.2029C7.5752 49.3465 3.0071 46.6326 1.86344 42.141C0.720129 37.6497 3.43404 33.0816 7.92567 31.9379C9.28433 31.5923 10.7078 31.5923 12.0665 31.9379C12.3508 32.0076 12.6508 31.9242 12.8586 31.7181L31.7648 12.811C31.9719 12.6038 32.0552 12.3031 31.9839 12.0192C30.8481 7.58033 33.5257 3.06127 37.9645 1.92516C38.8033 1.71083 39.6709 1.62853 40.5351 1.68237L36.1377 6.08141C35.9145 6.30431 35.8363 6.63455 35.9361 6.93392L37.6031 11.9358C37.6864 12.1844 37.8819 12.3799 38.1308 12.4626L43.1327 14.1299C43.4318 14.2296 43.762 14.1518 43.9852 13.9289L48.3826 9.53158C48.3925 9.69069 48.3977 9.84809 48.3977 10.0048C48.421 14.5853 44.727 18.3173 40.1465 18.341C39.4384 18.3444 38.7327 18.2573 38.0468 18.0817C37.7625 18.0107 37.4618 18.0937 37.2547 18.3008H37.2591V18.3012Z" fill="#AFCBD3"/>
<path d="M43.1525 41.9256L41.9735 43.1046L33.6377 34.7688L34.8163 33.5898L43.1525 41.9256Z" fill="#AFCBD3"/>
</g>
<defs>
<clipPath id="clip0">
<rect width="50" height="50" fill="white"/>
</clipPath>
</defs>
</svg>
