<svg width="34" height="50" viewBox="0 0 34 50" fill="none" xmlns="http://www.w3.org/2000/svg">
<path d="M16.6911 0C7.48748 0 0 7.48748 0 16.6911C0 25.8942 7.48748 33.3821 16.6911 33.3821C25.8942 33.3821 33.3821 25.8942 33.3821 16.6911C33.3821 7.48748 25.8942 0 16.6911 0ZM16.6911 30.0987C9.29832 30.0987 3.28349 24.0838 3.28349 16.6911C3.28349 9.29832 9.29832 3.28349 16.6911 3.28349C24.0844 3.28349 30.0987 9.29832 30.0987 16.6911C30.0987 24.0838 24.0844 30.0987 16.6911 30.0987Z" fill="#AFCBD3"/>
<path d="M28.3452 47.7057L27.5243 28.2236L24.2441 28.3615L24.9599 45.3426L18.1779 39.4991C17.3302 38.7072 16.0513 38.7061 15.2031 39.4991L8.42157 45.342L9.13739 28.3615L5.85664 28.2236L5.03574 47.7057C5.03515 47.7287 5.03467 47.7517 5.03467 47.7747C5.03467 48.6442 5.53974 49.4383 6.32177 49.7973C7.10761 50.1596 8.01054 50.0299 8.67821 49.4558L16.691 42.5522L24.706 49.4584C25.1219 49.8147 25.6303 49.9992 26.1447 49.9992C26.4544 49.9992 26.7658 49.933 27.0602 49.7972C27.8416 49.4382 28.3468 48.6442 28.3468 47.7746C28.3468 47.7516 28.3463 47.7287 28.3452 47.7057Z" fill="#AFCBD3"/>
<path d="M23.9817 11.6993C23.3403 11.0579 22.3016 11.0579 21.6603 11.6993L14.5099 18.8497L11.1832 15.4825C10.5457 14.8373 9.50644 14.8308 8.86122 15.4683C8.21601 16.1058 8.20947 17.145 8.84697 17.7902L13.3344 22.3324C13.6419 22.6438 14.06 22.8194 14.4972 22.8206C14.4989 22.8206 14.5006 22.8206 14.5021 22.8206C14.9372 22.8206 15.3553 22.6476 15.6634 22.339L23.9815 14.0209C24.6231 13.3799 24.6231 12.3401 23.9817 11.6993Z" fill="#AFCBD3"/>
</svg>
