<svg width="80" height="86" viewBox="0 0 80 86" fill="none" xmlns="http://www.w3.org/2000/svg">
<path d="M38.2556 0H9.99992V20.1556H0V70.8808H54.6779L57.2853 84.0178L62.3563 78.9073L69.3933 86L80 75.311L72.9623 68.2183L78.0332 63.1084L64.9982 60.4806C64.9982 52.2186 64.9982 28.9313 64.9982 20.1556H54.9983V11.2487L38.2556 0ZM39.999 7.22725L44.2418 10.0781H39.999V7.22725ZM34.9991 5.03906V15.1165H49.9983V35.2728H28.5349L23.535 30.2337H14.9999V5.03906H34.9991ZM4.99996 25.1947H9.99992V30.2337H4.99996V25.1947ZM72.9291 75.311L69.3933 78.8738L62.3556 71.7817L60.3556 73.7973L58.4715 64.3038L67.8914 66.2027L65.8907 68.2176L72.9291 75.311ZM52.0985 57.8803L53.6786 65.8418H4.99996V35.2728H21.464L26.464 40.3112H59.9982V59.4727L52.0985 57.8803ZM59.9982 25.1947V35.2728H54.9983V25.1947H59.9982Z" fill="#5A5858"/>
</svg>
