<svg width="50" height="50" viewBox="0 0 50 50" fill="none" xmlns="http://www.w3.org/2000/svg">
<path d="M49.7908 30.5226L41.3669 16.4816L48.9269 14.3816C49.7065 14.1651 50.1628 13.3577 49.9464 12.5782C49.7297 11.7987 48.9221 11.3423 48.1428 11.5589L38.7453 14.1692C38.7446 14.1694 38.7439 14.1696 38.7432 14.1698L26.4649 17.5804V1.46484C26.4649 0.655859 25.809 0 25.0001 0C24.1911 0 23.5352 0.655859 23.5352 1.46484V18.3941L10.5037 22.0139C10.503 22.0141 10.5023 22.0143 10.5016 22.0144L1.0732 24.6333C0.293614 24.8498 -0.162636 25.6572 0.05377 26.4367C0.233946 27.0851 0.822715 27.5099 1.46432 27.5099C1.5941 27.5099 1.72613 27.4925 1.85719 27.4561L7.73473 25.8234L0.209336 38.3673C0.072813 38.5949 0.00054735 38.8555 0.00054735 39.1209C0.00054735 45.1192 4.88072 49.9992 10.8792 49.9992C16.8778 49.9992 21.7579 45.1192 21.7579 39.1209C21.7579 38.8555 21.6857 38.5949 21.5491 38.3673L13.1251 24.3263L35.9763 17.9789L28.4509 30.5226C28.3144 30.7502 28.2421 31.0107 28.2421 31.2762C28.2421 37.2746 33.1223 42.1546 39.1208 42.1546C42.0265 42.1546 44.7584 41.023 46.8132 38.9683C48.868 36.9135 49.9996 34.1817 49.9994 31.276C49.9996 31.0106 49.9274 30.7501 49.7908 30.5226ZM10.8792 47.0696C6.99664 47.0696 3.7568 44.271 3.06705 40.5856H18.6913C18.0016 44.271 14.7618 47.0696 10.8792 47.0696ZM17.7061 37.656H4.0524L10.8792 26.2771L17.7061 37.656ZM39.1208 18.4324L45.9478 29.8112H32.2939L39.1208 18.4324ZM39.121 39.225C35.2384 39.225 31.9985 36.4264 31.3087 32.741H46.9332C46.2433 36.4264 43.0036 39.225 39.121 39.225Z" fill="#AFCBD3"/>
</svg>
