<svg width="20" height="14" viewBox="0 0 20 14" fill="none" xmlns="http://www.w3.org/2000/svg">
<path d="M19.68 1.01396L19.0249 0.33229C18.819 0.117926 18.5446 0 18.2516 0C17.9586 0 17.6839 0.117926 17.4781 0.33229L8.27269 9.9105L2.5213 3.9259C2.31545 3.71187 2.04082 3.59377 1.74781 3.59377C1.45496 3.59377 1.18049 3.71187 0.974473 3.9259L0.319187 4.60739C0.113171 4.8221 0 5.10803 0 5.41257C0 5.71728 0.113171 6.00305 0.319187 6.21741L6.81285 12.9739C6.82147 12.9866 6.83058 12.9984 6.84115 13.0092L7.49643 13.6797C7.70228 13.8932 7.97692 14 8.2722 14H8.27562C8.56879 14 8.84342 13.8932 9.04895 13.6797L9.7044 13.0033C9.71497 12.9925 9.72391 12.9835 9.72928 12.9744L19.6799 2.62161C20.1067 2.1785 20.1067 1.45758 19.68 1.01396Z" fill="#272727"/>
</svg>
